<?xml version="1.0" encoding="UTF-8" standalone="no"?>
<!DOCTYPE svg PUBLIC "-//W3C//DTD SVG 1.1//EN" "http://www.w3.org/Graphics/SVG/1.1/DTD/svg11.dtd">
<svg width="100%" height="100%" viewBox="0 0 1473 340" version="1.1" xmlns="http://www.w3.org/2000/svg" xmlns:xlink="http://www.w3.org/1999/xlink" xml:space="preserve" xmlns:serif="http://www.serif.com/" style="fill-rule:evenodd;clip-rule:evenodd;stroke-linejoin:round;stroke-miterlimit:2;">
    <g transform="matrix(1,0,0,1,-406.665,-147.76)">
        <g transform="matrix(1,0,0,1,35.4248,-226.042)">
            <path d="M1769.06,521.509L393.005,521.509C380.993,521.509 371.24,531.262 371.24,543.274C371.24,555.286 380.993,565.038 393.005,565.038L1769.09,565.038L1658.54,675.748C1650.06,684.248 1650.07,698.04 1658.57,706.527C1667.07,715.015 1680.86,715.005 1689.35,706.505L1836.29,559.344C1840.65,555.363 1843.38,549.635 1843.38,543.274C1843.38,536.912 1840.89,531.716 1836.92,527.752C1810.53,501.424 1689.1,380.161 1689.1,380.161C1680.6,371.673 1666.81,371.684 1658.32,380.184C1649.84,388.684 1649.85,402.476 1658.35,410.963L1769.06,521.509Z" style="fill:rgb(172,172,172);"/>
        </g>
    </g>
</svg>
