<svg width="208" height="20" viewBox="0 0 208 20" fill="none" xmlns="http://www.w3.org/2000/svg">
<path d="M73.8027 11.162L76.1041 10.4534C76.1887 11.3353 76.6008 12.1536 77.259 12.7467C77.9171 13.3399 78.7737 13.6649 79.6596 13.6577C81.4468 13.6577 82.6069 12.8174 82.6069 11.5257C82.6069 7.95133 74.3608 9.91409 74.3608 4.48361C74.3608 2.09445 76.5744 0.438965 79.5279 0.438965C82.3498 0.438965 84.5445 1.94395 84.996 4.20142L82.7386 5.12323C82.6072 4.38263 82.2067 3.71676 81.614 3.25371C81.0213 2.79066 80.2783 2.56313 79.5279 2.61492C77.8913 2.61492 76.9005 3.30471 76.9005 4.4648C76.9005 7.50612 85.1716 5.39288 85.1716 11.463C85.1716 14.0904 82.9518 15.8525 79.5718 15.8525C78.2042 15.9022 76.8651 15.4532 75.8039 14.5892C74.7426 13.7252 74.0314 12.505 73.8027 11.1557" fill="white"/>
<path d="M86.7402 4.84095H89.0918V6.22051C89.4926 5.71357 90.008 5.30889 90.5955 5.03965C91.183 4.77041 91.826 4.64429 92.4717 4.67163C95.6761 4.67163 97.5698 6.99808 97.5698 10.2714C97.5698 13.5448 95.5945 15.8649 92.34 15.8649C91.7279 15.8805 91.1199 15.7616 90.5586 15.5168C89.9974 15.2719 89.4967 14.907 89.0918 14.4477V19.6149H86.7402V4.84095ZM92.0829 13.8207C93.9642 13.8207 95.2183 12.4035 95.2183 10.2714C95.2183 8.13935 93.9642 6.7159 92.0829 6.7159C90.2017 6.7159 88.9476 8.11427 88.9476 10.2714C88.9476 12.4286 90.2017 13.8207 92.0829 13.8207Z" fill="white"/>
<path d="M103.922 4.67167C104.62 4.63336 105.319 4.74007 105.974 4.98505C106.629 5.23004 107.227 5.60799 107.728 6.09514C108.23 6.58229 108.626 7.16807 108.89 7.8156C109.155 8.46313 109.282 9.1584 109.265 9.8576C109.265 10.1837 109.265 10.6352 109.221 10.8296H100.931C101.144 12.7108 102.354 13.8646 104.066 13.8646C105.49 13.8646 106.499 13.1999 106.781 12.0147L109.001 12.5728C108.418 14.661 106.568 15.865 104.028 15.865C100.58 15.865 98.623 13.1999 98.623 10.2715C98.623 7.34301 100.473 4.67167 103.916 4.67167H103.922ZM106.763 9.0612C106.745 8.7079 106.657 8.36166 106.504 8.04297C106.35 7.72428 106.134 7.43959 105.869 7.20575C105.603 6.97191 105.294 6.79365 104.958 6.68152C104.623 6.56938 104.268 6.52565 103.916 6.5529C102.429 6.5529 101.407 7.45589 101.031 9.0612H106.763Z" fill="white"/>
<path d="M115.616 4.67167C116.314 4.63336 117.013 4.74007 117.668 4.98505C118.323 5.23004 118.92 5.60799 119.422 6.09514C119.924 6.58229 120.32 7.16807 120.584 7.8156C120.848 8.46313 120.976 9.1584 120.958 9.8576C120.958 10.1837 120.958 10.6352 120.914 10.8296H112.624C112.838 12.7108 114.042 13.8646 115.76 13.8646C117.183 13.8646 118.193 13.1999 118.475 12.0147L120.689 12.5728C120.112 14.661 118.256 15.865 115.716 15.865C112.273 15.865 110.311 13.1999 110.311 10.2715C110.311 7.34301 112.192 4.67167 115.609 4.67167H115.616ZM118.45 9.0612C118.433 8.70847 118.345 8.36279 118.192 8.04454C118.039 7.72629 117.823 7.4419 117.559 7.20814C117.294 6.97438 116.985 6.79598 116.65 6.68345C116.315 6.57091 115.962 6.52652 115.609 6.5529C114.123 6.5529 113.101 7.45589 112.725 9.0612H118.45Z" fill="white"/>
<path d="M122.012 10.2714C122.012 6.9291 124.206 4.67163 127.461 4.67163C130.126 4.67163 132.045 6.08882 132.409 8.33375L130.126 8.78525C130.02 8.18208 129.696 7.63866 129.217 7.25746C128.738 6.87626 128.135 6.68364 127.524 6.7159C125.642 6.7159 124.445 8.11427 124.445 10.2714C124.445 12.4286 125.699 13.8207 127.524 13.8207C128.131 13.8656 128.734 13.6833 129.215 13.3091C129.696 12.9348 130.021 12.3953 130.126 11.7952L132.434 12.253C131.982 14.5105 130.107 15.8649 127.461 15.8649C124.206 15.8649 122.012 13.6075 122.012 10.2714Z" fill="white"/>
<path d="M134.027 0.451416H136.373V6.72218C136.716 6.08392 137.231 5.55429 137.859 5.19307C138.487 4.83185 139.204 4.65342 139.928 4.6779C142.38 4.6779 143.998 6.20796 143.998 8.57204V15.7019H141.653V9.10506C141.676 8.7898 141.63 8.47327 141.518 8.1775C141.407 7.88172 141.232 7.61381 141.007 7.39239C140.781 7.17097 140.51 7.00135 140.212 6.89535C139.914 6.78935 139.597 6.74952 139.282 6.77861C137.47 6.77861 136.373 8.35256 136.373 10.9988V15.6956H134.027V0.451416Z" fill="white"/>
<path d="M146.23 4.84109H148.576V6.67214C148.847 6.05909 149.295 5.54107 149.862 5.18462C150.43 4.82816 151.091 4.64956 151.761 4.67177C153.505 4.67177 154.752 5.42425 155.204 6.82263C155.538 6.16491 156.05 5.61443 156.682 5.23409C157.314 4.85374 158.041 4.65888 158.778 4.67177C161.105 4.67177 162.616 6.17675 162.616 8.37151V15.6958H160.264V8.95471C160.264 7.60022 159.493 6.69723 158.114 6.69723C156.496 6.69723 155.605 8.11442 155.605 10.2026V15.6958H153.279V8.95471C153.279 7.60022 152.526 6.69723 151.147 6.69723C149.535 6.69723 148.638 8.1395 148.638 10.2026V15.6958H146.23V4.84109Z" fill="white"/>
<path d="M168.956 6.52151C168.365 6.4801 167.781 6.67465 167.334 7.06253C166.886 7.45041 166.61 7.99999 166.567 8.59086L164.453 8.20207C164.798 6.07001 166.648 4.67163 168.956 4.67163C171.709 4.67163 173.602 6.22052 173.602 8.93576V15.6956H171.314V14.0402C170.952 14.6116 170.45 15.0799 169.854 15.3997C169.259 15.7194 168.591 15.8797 167.915 15.8649C165.758 15.8649 164.271 14.5105 164.271 12.6606C164.271 10.5285 165.933 9.38724 169.288 9.04235L171.332 8.82915V8.65357C171.332 7.3179 170.404 6.49642 168.987 6.49642L168.956 6.52151ZM168.404 14.0213C170.235 14.0213 171.314 12.7672 171.332 10.9863V10.5348L169.263 10.7731C167.501 10.9612 166.598 11.6071 166.598 12.5603C166.598 13.4194 167.307 14.0213 168.404 14.0213Z" fill="white"/>
<path d="M180.262 15.865C178.212 15.865 176.688 14.7488 176.688 12.2719V6.84766H174.807V4.84103H176.688V1.61157H179.033V4.84103H181.83V6.84766H179.033V12.1402C179.003 12.3492 179.02 12.5622 179.082 12.764C179.144 12.9657 179.25 13.1514 179.392 13.3077C179.534 13.4639 179.708 13.587 179.903 13.6681C180.098 13.7492 180.308 13.7863 180.519 13.7769C180.97 13.7863 181.417 13.6986 181.83 13.5198L181.98 15.6079C181.425 15.7854 180.845 15.8722 180.262 15.865" fill="white"/>
<path d="M184.588 0C184.99 0 185.376 0.159881 185.661 0.444472C185.946 0.729063 186.105 1.11504 186.105 1.51751C186.105 1.91999 185.946 2.30598 185.661 2.59057C185.376 2.87517 184.99 3.03505 184.588 3.03505C184.185 3.03505 183.799 2.87517 183.515 2.59057C183.23 2.30598 183.07 1.91999 183.07 1.51751C183.07 1.11504 183.23 0.729063 183.515 0.444472C183.799 0.159881 184.185 0 184.588 0ZM183.421 4.84103H185.773V15.6957H183.421V4.84103Z" fill="white"/>
<path d="M187.43 10.2714C187.43 6.9291 189.624 4.67163 192.879 4.67163C195.544 4.67163 197.463 6.08882 197.827 8.33375L195.544 8.78525C195.438 8.18208 195.114 7.63866 194.635 7.25746C194.156 6.87626 193.553 6.68364 192.942 6.7159C191.06 6.7159 189.863 8.11427 189.863 10.2714C189.863 12.4286 191.117 13.8207 192.942 13.8207C193.549 13.8656 194.152 13.6833 194.633 13.3091C195.114 12.9348 195.438 12.3953 195.544 11.7952L197.852 12.253C197.4 14.5105 195.525 15.8649 192.879 15.8649C189.624 15.8649 187.43 13.6075 187.43 10.2714Z" fill="white"/>
<path d="M198.352 12.6794L200.289 11.8642C200.431 12.476 200.777 13.021 201.271 13.4087C201.765 13.7965 202.377 14.0038 203.004 13.9963C204.121 13.9963 204.886 13.3692 204.886 12.5728C204.886 10.2275 198.841 11.7576 198.841 7.64398C198.841 5.93834 200.327 4.67163 202.672 4.67163C204.716 4.67163 206.435 5.75021 206.911 7.34298L204.973 8.15817C204.833 7.66462 204.533 7.2317 204.12 6.92748C203.706 6.62327 203.204 6.46502 202.691 6.47761C201.656 6.47761 201.01 6.89149 201.01 7.60008C201.01 9.68825 207.106 8.09547 207.106 12.554C207.106 14.4352 205.469 15.8649 203.017 15.8649C202 15.9144 200.995 15.6298 200.155 15.0547C199.315 14.4795 198.686 13.6453 198.364 12.6794" fill="white"/>
<path d="M24.3136 9.02742C24.3148 7.15621 25.01 5.35196 26.2649 3.96387C26.1274 4.10815 25.9832 4.25931 25.8389 4.4242C24.8794 5.50654 23.6697 6.3378 22.3153 6.84554C20.9609 7.35328 19.5029 7.5221 18.0684 7.33728C24.2518 13.6719 26.9382 15.2315 28.8619 15.9597C27.5107 15.3732 26.3603 14.4046 25.5523 13.173C24.7442 11.9414 24.3137 10.5004 24.3136 9.02742" fill="#CACACA"/>
<path d="M34.9977 2.15019L34.8809 2.09521L34.9977 2.15019Z" fill="#92C3BB"/>
<path d="M34.8809 2.09521L35.7259 2.52806C36.6862 3.09785 37.5084 3.87336 38.1332 4.79884C38.758 5.72431 39.1699 6.77675 39.3394 7.88045C39.5089 8.98415 39.4318 10.1117 39.1135 11.182C38.7951 12.2523 38.2436 13.2388 37.4985 14.0705C37.6359 13.9331 37.7665 13.7888 37.9039 13.6376C38.8595 12.556 40.0655 11.725 41.4165 11.2172C42.7675 10.7093 44.2223 10.5402 45.6538 10.7246C39.3879 4.2869 36.8046 2.82349 34.8809 2.09521" fill="#CACACA"/>
<path d="M42.2383 7.37863C50.4829 16.0629 54.1723 16.5301 56.0617 16.5301C58.0442 16.5247 59.9434 15.7319 61.3413 14.3262C62.7393 12.9204 63.5216 11.0169 63.5162 9.03442C63.5107 7.0519 62.7179 5.15275 61.3122 3.75477C59.9065 2.35678 58.003 1.57447 56.0205 1.57994C55.5876 1.57994 52.915 1.312 50.1737 4.44494C47.0407 8.03134 42.2383 7.37863 42.2383 7.37863V7.37863ZM56.206 5.09762C56.9893 5.08809 57.7577 5.31166 58.4137 5.73991C59.0697 6.16816 59.5835 6.78176 59.8899 7.50274C60.1963 8.22371 60.2814 9.01949 60.1345 9.78896C59.9875 10.5584 59.6151 11.2668 59.0646 11.8242C58.514 12.3815 57.8102 12.7625 57.0426 12.9189C56.275 13.0753 55.4782 12.9999 54.7536 12.7024C54.0289 12.4048 53.409 11.8985 52.9728 11.2479C52.5365 10.5972 52.3036 9.83153 52.3035 9.04816C52.2999 8.0076 52.7083 7.00791 53.4396 6.26763C54.1708 5.52735 55.1654 5.1067 56.206 5.09762" fill="white"/>
<path d="M31.872 1.46997C30.3773 1.46997 28.9161 1.91322 27.6733 2.74366C26.4304 3.57409 25.4617 4.75442 24.8897 6.13538C24.3177 7.51634 24.1681 9.0359 24.4597 10.5019C24.7513 11.9679 25.4711 13.3146 26.528 14.3715C27.585 15.4284 28.9316 16.1482 30.3976 16.4398C31.8636 16.7314 33.3832 16.5818 34.7641 16.0098C36.1451 15.4378 37.3254 14.4691 38.1559 13.2263C38.9863 11.9834 39.4295 10.5223 39.4295 9.02751C39.4295 7.02313 38.6333 5.10084 37.216 3.68353C35.7987 2.26621 33.8764 1.46997 31.872 1.46997ZM31.872 12.9849C31.0873 12.9945 30.3175 12.7705 29.6604 12.3415C29.0033 11.9125 28.4886 11.2978 28.1817 10.5756C27.8748 9.85334 27.7895 9.05616 27.9368 8.28536C28.084 7.51456 28.4571 6.80494 29.0085 6.24667C29.56 5.68839 30.265 5.30668 31.034 5.15005C31.8029 4.99341 32.6011 5.06891 33.327 5.36697C34.053 5.66504 34.6739 6.17218 35.1109 6.82398C35.5479 7.47577 35.7813 8.24277 35.7813 9.02751C35.7849 9.54417 35.6866 10.0565 35.4921 10.5351C35.2975 11.0137 35.0104 11.4493 34.6473 11.8169C34.2842 12.1845 33.8522 12.4768 33.3759 12.6772C32.8997 12.8777 32.3887 12.9822 31.872 12.9849" fill="white"/>
<path d="M21.5104 10.7039C13.204 2.00583 9.5764 1.55237 7.68014 1.55237C6.67988 1.52493 5.68428 1.6986 4.75238 2.06307C3.82048 2.42754 2.97125 2.97538 2.25502 3.67416C1.53878 4.37293 0.970138 5.20839 0.582787 6.13102C0.195437 7.05364 -0.00273192 8.04466 2.84453e-05 9.04529C0.00278881 10.0459 0.206413 11.0358 0.598848 11.9563C0.991283 12.8767 1.56454 13.7091 2.28462 14.4039C3.0047 15.0987 3.85694 15.6419 4.79084 16.0012C5.72473 16.3605 6.72127 16.5287 7.72136 16.4957C8.1542 16.4957 10.8268 16.7705 13.5681 13.6376C16.7011 10.0512 21.5104 10.7039 21.5104 10.7039ZM7.53585 12.9849C6.75063 12.9972 5.97953 12.7755 5.32065 12.3482C4.66178 11.9209 4.14494 11.3072 3.83591 10.5852C3.52688 9.86329 3.43963 9.06571 3.58527 8.29402C3.73091 7.52233 4.10286 6.81142 4.65378 6.25177C5.20469 5.69211 5.90964 5.30902 6.67894 5.15125C7.44824 4.99347 8.2471 5.06814 8.97383 5.36576C9.70056 5.66338 10.3223 6.17051 10.76 6.82257C11.1976 7.47464 11.4313 8.24216 11.4314 9.02747C11.4369 10.0692 11.0293 11.0707 10.2978 11.8124C9.56635 12.5542 8.57071 12.9758 7.52899 12.9849" fill="white"/>
</svg>
