<?xml version="1.0" encoding="UTF-8"?>
<svg width="215px" height="65px" viewBox="0 0 215 65" version="1.1" xmlns="http://www.w3.org/2000/svg" xmlns:xlink="http://www.w3.org/1999/xlink">
    <!-- Generator: Sketch 53.2 (72643) - https://sketchapp.com -->
    <title>logo</title>
    <desc>Created with Sketch.</desc>
    <g id="Page-1" stroke="none" stroke-width="1" fill="none" fill-rule="evenodd">
        <g id="logo" fill-rule="nonzero">
            <path d="M95.7314954,14.7801465 C95.7314954,20.850096 99.4195723,26.0625707 104.691372,28.3375707 C100.904726,26.9147929 95.6759262,23.8624192 83.4209262,11.4651465 C83.4209262,11.4651465 92.3212646,13.0487828 98.7342185,5.77009596 C99.0166954,5.45034848 99.2978492,5.15161111 99.5790031,4.86666162 C97.1882031,7.48898485 95.7314954,10.9655 95.7314954,14.7801465 Z" id="Fill-1" fill="#92C4BD"></path>
            <path d="M12.2655846,63.2107929 C10.8743692,64.3098838 9.05712308,64.816096 6.95673846,64.816096 C4.11741538,64.816096 1.591,63.351298 0,61.8858434 L2.27172308,58.5609949 C3.69204615,60.0264495 5.87710769,61.0126111 7.38210769,61.0126111 C8.85932308,61.0126111 9.99452308,60.3087727 9.99452308,59.0120556 C9.99452308,57.6877626 8.54575385,57.1802374 7.69435385,56.8703384 C6.84295385,56.561096 5.36706154,56.0542273 4.71346154,55.7712475 C4.2312,55.546702 3.23690769,55.1809949 2.38484615,54.3629141 C1.53344615,53.5737222 0.852061538,52.446399 0.852061538,50.6152374 C0.852061538,48.7558434 1.76101538,47.2903889 2.89621538,46.3600354 C4.00363077,45.4309949 5.79243077,44.811197 8.06349231,44.811197 C10.3345538,44.811197 12.9469692,45.881399 14.2806308,47.2056919 L12.3218154,50.3900354 C11.1866154,49.2627121 9.42626154,48.4170556 7.95036923,48.4170556 C6.47447692,48.4170556 5.39484615,48.9810455 5.39484615,50.1648333 C5.39484615,51.3486212 6.50226154,51.7990253 7.38210769,52.1365 C8.23350769,52.4746313 9.68227692,52.9821566 10.3067692,53.2362475 C10.8459231,53.4325606 12.1518,53.9400859 13.0316462,54.8133182 C13.8552615,55.6307424 14.5650923,56.8145303 14.5650923,58.5609949 C14.5650923,60.4210455 13.6852462,62.111702 12.2655846,63.2107929" id="Fill-3" fill="#001A3B"></path>
            <path d="M27.4267231,49.0940404 C26.8591231,48.6994444 26.2055231,48.5582828 25.2118923,48.5582828 L23.4244154,48.5582828 L23.4244154,53.7720707 L25.2118923,53.7720707 C26.2055231,53.7720707 26.8591231,53.6309091 27.4267231,53.2363131 C27.9658769,52.8417172 28.3641231,52.1372222 28.3641231,51.1510606 C28.3641231,50.164899 27.9658769,49.4886364 27.4267231,49.0940404 M30.9758769,55.8284343 C29.6693385,56.8986364 27.8805385,57.2932323 25.8654923,57.2932323 L23.4522,57.2932323 L23.4522,64.4793434 L18.8531846,64.4793434 L18.8531846,45.0364646 L25.8654923,45.0364646 C27.8805385,45.0364646 29.6693385,45.4310606 30.9758769,46.5012626 C32.2817538,47.5721212 33.0200308,49.0658081 33.0200308,51.1510606 C33.0200308,53.2363131 32.2817538,54.7293434 30.9758769,55.8284343" id="Fill-5" fill="#001A3B"></path>
            <polygon id="Fill-7" fill="#001A3B" points="49.3311215 64.4790808 36.3854754 64.4790808 36.3854754 45.0368586 49.0764292 45.0368586 49.0764292 48.6716061 40.9567062 48.6716061 40.9567062 52.6444848 48.6212908 52.6444848 48.6212908 56.2792323 40.9567062 56.2792323 40.9567062 60.7872121 49.3311215 60.7872121"></polygon>
            <polygon id="Fill-9" fill="#001A3B" points="66.9626431 64.4790808 54.0169969 64.4790808 54.0169969 45.0368586 66.7079508 45.0368586 66.7079508 48.6716061 58.5882277 48.6716061 58.5882277 52.6444848 66.2528123 52.6444848 66.2528123 56.2792323 58.5882277 56.2792323 58.5882277 60.7872121 66.9626431 60.7872121"></polygon>
            <path d="M87.2784892,62.1676414 C86.2848585,63.1826919 84.2122585,64.8162273 80.2086277,64.8162273 C74.4459662,64.8162273 69.9316277,61.0409747 69.9316277,54.7852172 C69.9316277,48.503197 74.5021969,44.7548636 80.2086277,44.7548636 C84.2407046,44.7548636 86.4270892,46.4179444 86.9371354,46.9523889 L85.5181354,50.728298 C85.1496585,50.2490051 83.0486123,48.6988535 80.4646431,48.6988535 C77.1423969,48.6988535 74.5875354,50.8970354 74.5875354,54.7011768 C74.5875354,58.5046616 77.2561815,60.6759242 80.4646431,60.6759242 C82.9063815,60.6759242 84.6660738,59.7179949 85.7457046,58.618904 L87.2784892,62.1676414 Z" id="Fill-11" fill="#001A3B"></path>
            <polygon id="Fill-13" fill="#001A3B" points="108.287495 64.4790808 103.687818 64.4790808 103.687818 56.335697 95.8241108 56.335697 95.8241108 64.4790808 91.2250954 64.4790808 91.2250954 45.0368586 95.8241108 45.0368586 95.8241108 52.5597879 103.687818 52.5597879 103.687818 45.0368586 108.287495 45.0368586"></polygon>
            <polygon id="Fill-15" fill="#001A3B" points="135.6134 64.4790808 132.888523 64.4790808 131.611092 49.1220101 131.525092 49.1220101 125.534862 64.6478182 123.973631 64.6478182 117.982738 49.1220101 117.898062 49.1220101 116.649077 64.4790808 113.922877 64.4790808 115.683892 45.0368586 119.090154 45.0368586 124.740354 60.0551414 124.796585 60.0551414 130.446123 45.0368586 133.825262 45.0368586"></polygon>
            <path d="M151.043586,57.1247576 L147.608217,48.3898081 L144.173509,57.1247576 L151.043586,57.1247576 Z M156.892248,64.4789495 L153.826017,64.4789495 L151.809648,59.4069798 L143.406125,59.4069798 L141.391078,64.4789495 L138.494863,64.4789495 L146.472355,44.9796061 L148.886309,44.9796061 L156.892248,64.4789495 Z" id="Fill-17" fill="#001A3B"></path>
            <polygon id="Fill-19" fill="#001A3B" points="170.661046 47.3186212 165.153738 47.3186212 165.153738 64.4792778 162.399092 64.4792778 162.399092 47.3186212 156.862677 47.3186212 156.862677 45.036399 170.661046 45.036399"></polygon>
            <polygon id="Fill-21" fill="#001A3B" points="174.620354 64.4790152 177.374338 64.4790152 177.374338 45.0367929 174.620354 45.0367929"></polygon>
            <path d="M198.611046,61.9432273 C197.391169,63.295096 195.176338,64.8163586 191.457169,64.8163586 C185.750077,64.8163586 181.435523,60.8441364 181.435523,54.7860051 C181.435523,48.7272172 185.835415,44.7549949 191.457169,44.7549949 C195.118785,44.7549949 197.333615,46.2762576 198.412585,47.3188838 L197.248938,49.5164091 C196.482215,48.5584798 194.296492,47.1494899 191.570292,47.1494899 C187.340415,47.1494899 184.274185,50.165096 184.274185,54.7295404 C184.274185,59.2946414 187.368862,62.3089343 191.570292,62.3089343 C194.154262,62.3089343 196.141523,61.3227727 197.418954,59.9420152 L198.611046,61.9432273 Z" id="Fill-23" fill="#001A3B"></path>
            <path d="M212.934942,63.2948333 C211.713742,64.2816515 210.095618,64.816096 208.136142,64.816096 C204.701434,64.816096 202.742618,62.6198838 201.805218,61.5483687 L203.423342,59.7172071 C204.417634,61.0408434 206.263326,62.506298 208.392157,62.506298 C210.520988,62.506298 212.224449,61.2942778 212.224449,59.2372576 C212.224449,57.2091263 210.038726,56.4199343 209.045095,56.0259949 C208.022357,55.6307424 206.660911,55.0956414 205.921311,54.7292778 C205.495942,54.5316515 204.672326,54.1088232 203.962495,53.3498333 C203.253326,52.6151364 202.685065,51.5449343 202.685065,49.9672071 C202.685065,48.3894798 203.423342,47.0934192 204.473865,46.2195303 C205.552834,45.3180657 207.08628,44.7829646 208.988203,44.7829646 C212.196003,44.7829646 214.070142,46.7277121 214.609957,47.2903889 L213.161849,49.1497828 C212.196003,48.1353889 210.777003,47.0645303 208.845972,47.0645303 C206.914942,47.0645303 205.439049,47.9666515 205.439049,49.7702374 C205.439049,51.5731667 206.773372,52.2494293 207.966126,52.7280657 L211.572172,54.2224091 C211.940649,54.3904899 213.133403,55.0391768 213.787003,55.7994798 C214.410834,56.561096 214.978434,57.6030657 214.978434,59.0685202 C214.978434,60.7598333 214.212372,62.2528636 212.934942,63.2948333" id="Fill-24" fill="#001A3B"></path>
            <path d="M116.781252,1.32435859 L116.553683,1.21865152 L116.554345,1.22259091 C116.630422,1.25541919 116.705837,1.29021717 116.781252,1.32435859" id="Fill-25" fill="#91C3BC"></path>
            <path d="M116.553485,1.21858586 C116.722838,1.29212121 118.150438,2.02747475 118.217915,2.06752525 C122.586054,4.64388889 125.514685,9.37116162 125.514685,14.7799495 C125.514685,18.570303 124.075838,22.0258081 121.712162,24.6415657 C121.977438,24.3710606 122.244038,24.0893939 122.509977,23.7867172 C128.922931,16.5080303 137.778946,18.0982323 137.778946,18.0982323 C125.435962,5.5059596 120.340131,2.64136364 116.553485,1.21858586" id="Fill-26" fill="#92C4BD"></path>
            <path d="M158.580229,7.04882323 C162.831275,7.04882323 166.277229,10.5095808 166.277229,14.7785707 C166.277229,19.0475606 162.831275,22.5083182 158.580229,22.5083182 C154.329183,22.5083182 150.883229,19.0475606 150.883229,14.7785707 C150.883229,10.5095808 154.329183,7.04882323 158.580229,7.04882323 M131.045014,11.5042778 C147.303645,28.4935707 154.562045,29.4048838 158.29246,29.4048838 C166.426737,29.4048838 173.003091,22.8215 172.98126,14.7490253 C172.960091,6.67589394 166.348014,0.169984848 158.213737,0.169984848 C157.355722,0.148974747 152.089875,-0.355924242 146.692383,5.7704899 C140.515598,12.781298 131.045014,11.5042778 131.045014,11.5042778" id="Fill-27" fill="#001A3B"></path>
            <path d="M110.622925,22.5095 C106.371878,22.5095 102.925925,19.0487424 102.925925,14.7804091 C102.925925,10.5114192 106.371878,7.05000505 110.622925,7.05000505 C114.873971,7.05000505 118.319925,10.5114192 118.319925,14.7804091 C118.319925,19.0487424 114.873971,22.5095 110.622925,22.5095 M110.622925,-0.000196969697 C102.398678,-0.000196969697 95.7316938,6.61732828 95.7316938,14.7804091 C95.7316938,22.9421768 102.398678,29.559702 110.622925,29.559702 C118.847171,29.559702 125.514817,22.9421768 125.514817,14.7804091 C125.514817,6.61732828 118.847171,-0.000196969697 110.622925,-0.000196969697" id="Fill-28" fill="#001A3B"></path>
            <path d="M62.6642969,22.507596 C58.4132508,22.507596 54.9672969,19.0468384 54.9672969,14.7785051 C54.9672969,10.5095152 58.4132508,7.04810101 62.6642969,7.04810101 C66.9153431,7.04810101 70.3612969,10.5095152 70.3612969,14.7785051 C70.3612969,19.0468384 66.9153431,22.507596 62.6642969,22.507596 M90.2014969,18.052798 C73.8350354,1.04380808 66.6824815,0.151535354 62.9520662,0.151535354 C54.8177892,0.151535354 48.2414354,6.73557576 48.2632662,14.8080505 C48.2850969,22.8811818 54.8965123,29.3870909 63.0307892,29.3870909 C63.8888046,29.4074444 69.1553123,29.9123434 74.5521431,23.7859293 C80.7289277,16.7757778 90.2014969,18.052798 90.2014969,18.052798" id="Fill-29" fill="#001A3B"></path>
        </g>
    </g>
</svg>